<svg xmlns="http://www.w3.org/2000/svg" width="24" height="24" fill-rule="evenodd" clip-rule="evenodd" style=""><rect id="backgroundrect" width="100%" height="100%" x="0" y="0" fill="none" stroke="none"/><g class="currentLayer" style=""><title>Layer 1</title><path d="M12 0c6.623 0 12 5.377 12 12s-5.377 12-12 12-12-5.377-12-12 5.377-12 12-12zm-4.809 13.077l3.627-1.796-3.717-3.17 1.149-.569 6.017 2.031 2.874-1.423c.757-.38 2.009-.278 2.294.296.045.092.065.195.065.306-.002.586-.59 1.381-1.221 1.698l-2.874 1.423-2.031 6.016-1.15.569-.268-4.878-3.626 1.796-.749 1.802-.804.398-.281-2.724-1.996-1.874.804-.399 1.887.498z" id="svg_1" class="selected" fill="#b6b6b6" stroke="none" stroke-dasharray="none" stroke-width="1" fill-opacity="1"/></g></svg>