<svg xmlns="http://www.w3.org/2000/svg" width="48" height="48" viewBox="0 0 48 48">
    <g fill="none" fill-rule="evenodd">
        <circle cx="24" cy="24" r="24" fill="#BB1C5F"/>
        <path fill="#FFF" fill-rule="nonzero" d="M32.85 29.506v1.616c0 .233-.093.457-.258.622-.165.164-.39.256-.622.256H16.03c-.233 0-.457-.092-.622-.256-.165-.165-.257-.389-.257-.622v-1.616c0-.152.123-.276.275-.276H16.6c.151 0 .274-.122.275-.273v-6.383h-.099c-.304 0-.55-.247-.55-.551v-.716c-.002-.038.012-.075.039-.102.026-.027.062-.042.1-.042h4.116c.076 0 .138.062.138.138v.726c0 .304-.247.55-.551.55h-.1v6.38c.001.151.124.273.276.273h1.934c.151 0 .274-.122.274-.273v-6.383h-.105c-.304 0-.551-.247-.551-.551v-.716c0-.076.06-.137.136-.138h4.127c.075 0 .136.062.136.138v.72c0 .304-.247.55-.551.55h-.1v6.38c0 .15.123.273.274.273h1.936c.152 0 .275-.122.276-.273v-6.383h-.1c-.304 0-.55-.247-.55-.551v-.716c0-.077.061-.138.137-.138h4.118c.076 0 .137.062.138.138v.72c0 .304-.247.55-.551.55h-.1v6.38c.002.151.125.273.276.273h1.174c.073 0 .144.029.196.08.052.052.081.122.081.196zm-.304-11.282l-8.3-4.165c-.155-.078-.337-.078-.492 0l-8.3 4.165c-.186.094-.303.283-.303.49v1.222c0 .152.124.274.275.274h17.148c.151 0 .274-.122.275-.274V18.72c.001-.21-.116-.4-.303-.495z"/>
    </g>
</svg>
